<svg xmlns="http://www.w3.org/2000/svg" xmlns:svg="http://www.w3.org/2000/svg" id="Layer_1" width="500" height="428.262" x="0" y="0" enable-background="new 0 0 320 102.667" version="1.1" viewBox="0 0 500 428.262" xml:space="preserve"><metadata id="metadata71"/><g id="g62" transform="matrix(5.0302202,0,0,5.0302202,-1096.2445,-9.7772194)"><g id="g46"><circle style="fill:#5b87da" id="ellipse16" cx="272.97" cy="6.583" r="4.633" transform="matrix(0.7071,-0.7071,0.7071,0.7071,75.2889,194.9389)"/><circle style="fill:#5b87da" id="ellipse18" cx="285.7" cy="19.312" r="5.147" transform="matrix(0.7071,-0.7071,0.7071,0.7071,70.0236,207.6766)"/><ellipse style="fill:#5b87da" id="ellipse20" cx="298.429" cy="32.042" rx="5.661" ry="5.66" transform="matrix(0.7071,-0.7071,0.7071,0.7071,64.7566,220.4137)"/><ellipse style="fill:#5b87da" id="ellipse22" cx="311.159" cy="44.772" rx="6.175" ry="6.174" transform="matrix(0.7071,-0.7071,0.7071,0.7071,59.4777,233.1359)"/><circle style="fill:#1edcff" id="ellipse24" cx="247.511" cy="6.583" r="4.119" transform="matrix(0.7071,-0.7071,0.7071,0.7071,67.8322,176.9367)"/><circle style="fill:#1edcff" id="ellipse26" cx="260.24" cy="19.312" r="4.633" transform="matrix(0.7071,-0.7071,0.7071,0.7071,62.5669,189.6742)"/><circle style="fill:#1edcff" id="ellipse28" cx="272.97" cy="32.042" r="5.147" transform="matrix(0.7071,-0.7071,0.7071,0.7071,57.2882,202.3964)"/><circle style="fill:#1edcff" id="ellipse30" cx="285.7" cy="44.772" r="5.661" transform="matrix(0.7071,-0.7071,0.7071,0.7071,52.0167,215.1274)"/><ellipse style="fill:#1edcff" id="ellipse32" cx="298.429" cy="57.501" rx="6.175" ry="6.174" transform="matrix(0.7071,-0.7071,0.7071,0.7071,46.7535,227.8705)"/><circle id="ellipse34" cx="222.052" cy="6.582" r="3.605" transform="matrix(0.7071,-0.7071,0.7071,0.7071,60.3907,158.9503)"/><circle id="ellipse36" cx="234.782" cy="19.312" r="4.119" transform="matrix(0.7071,-0.7071,0.7071,0.7071,55.1036,171.664)"/><circle id="ellipse38" cx="247.511" cy="32.042" r="4.633" transform="matrix(0.7071,-0.7071,0.7071,0.7071,49.8433,184.4092)"/><circle id="ellipse40" cx="260.241" cy="44.771" r="5.147" transform="matrix(0.7071,-0.7071,0.7071,0.7071,44.5704,197.1387)"/><ellipse id="ellipse42" cx="272.97" cy="57.501" rx="5.661" ry="5.66" transform="matrix(0.7071,-0.7071,0.7071,0.7071,39.2976,209.8698)"/><ellipse id="ellipse44" cx="285.7" cy="70.231" rx="6.175" ry="6.174" transform="matrix(0.7071,-0.7071,0.7071,0.7071,34.0145,222.5829)"/></g><g id="g60"><circle style="fill:#5b87da" id="ellipse48" cx="247.512" cy="57.501" r="4.119" transform="matrix(0.7071,-0.7071,0.7071,0.7071,31.8295,191.8493)"/><circle style="fill:#5b87da" id="ellipse50" cx="234.783" cy="70.23" r="4.119" transform="matrix(0.7071,-0.7071,0.7071,0.7071,19.101,186.5767)"/><circle style="fill:#5b87da" id="ellipse52" cx="222.053" cy="82.959" r="4.119" transform="matrix(0.7071,-0.7071,0.7071,0.7071,6.3767,181.3135)"/><circle style="fill:#5b87da" id="ellipse54" cx="247.512" cy="82.96" r="4.119" transform="matrix(0.7071,-0.7071,0.7071,0.7071,13.8286,199.3076)"/><circle style="fill:#5b87da" id="ellipse56" cx="272.97" cy="82.961" r="4.119" transform="matrix(0.7071,-0.7071,0.7071,0.7071,21.2889,217.318)"/><circle style="fill:#5b87da" id="ellipse58" cx="260.241" cy="70.23" r="4.119" transform="matrix(0.7071,-0.7071,0.7071,0.7071,26.5569,204.578)"/></g></g></svg>